<?xml version="1.0" encoding="UTF-8"?>
<svg version="1.1" viewBox="0 0 2048 1365" width="1280" height="1280" xmlns="http://www.w3.org/2000/svg">
<path transform="translate(888)" d="m0 0h272v546h888v272h-888v546l-1 1h-271v-547h-888v-272l887-1z" fill="#FE1409"/>
<path transform="translate(396,952)" d="m0 0h96l-2 14-5 30-4 36-2 25 17-2 38-4 32-5 11-2h6l-2 29v37l2 28-9-1-18-3-63-6-12-1-2-1 4 43 4 30 5 27-1 5-25-2h-47l-12 1h-12l5-27 5-36 4-41-4 1-56 5-31 4-13 2v-9l2-29v-18l-2-30v-8l10 1 39 6 36 4 18 1-2-31-5-39-5-29z" fill="#FE1409"/>
<path transform="translate(1556,952)" d="m0 0 54 1 42-1-1 9-5 30-3 21-4 45 18-2 30-3 34-5 16-3h6l-1 17-1 11v38l2 28-14-2-23-3-53-5-14-1 5 50 4 27 4 21v6l-26-2h-46l-24 2-1-2 5-26 5-35 4-42-4 1-64 6-27 4-9 1 1-17 1-18v-24l-2-29v-6l11 1 38 6 36 4 19 2-4-42-5-35-4-24z" fill="#FE1409"/>
<path transform="translate(396,133)" d="m0 0 32 2h32l26-2h6l-1 9-6 36-4 36-2 23 66-6 32-5 5-1 1 3-2 27v36l2 29-10-1-22-4-29-4-43-4 4 44 4 29 5 29v3h-10l-14-1h-48l-24 1-1-2 6-32 4-30 4-41-35 3-39 5-26 5h-4v-10l2-30v-13l-2-34v-8l30 5 51 5 23 2-1-3-3-37-6-42-4-21z" fill="#FE1409"/>
<path transform="translate(1556,133)" d="m0 0 33 2h31l26-2h6l-1 10-5 29-4 33-3 32 67-6 32-5 5-1-2 29v38l2 21v7l-9-1-36-6-25-3-34-3 5 52 6 38 2 11v4l-24-1h-47l-25 1 1-10 6-37 4-36 2-22-44 4-41 6-15 3h-4l1-18 1-17v-22l-2-37 11 1 28 4 65 6-5-48-6-40-2-11z" fill="#FE1409"/>
</svg>
